# Blender 3.1.0
# www.blender.org
mtllib corrugated-plate01.obj.mtl
o Plane
v -0.010994 2.029012 1.035712
v -0.010994 0.029012 1.035712
v -0.006641 2.029012 -1.000000
v -0.006641 0.029012 -1.000000
v -0.013396 2.029012 -0.812243
v -0.013396 2.029012 -0.477757
v -0.013396 2.029012 -0.312243
v -0.013396 2.029012 0.022243
v -0.013396 2.029012 0.187757
v -0.013396 2.029012 0.522243
v -0.013396 2.029012 0.687756
v -0.013396 0.029012 0.687757
v -0.013396 0.029012 0.522243
v -0.013396 0.029012 0.187757
v -0.013396 0.029012 0.022243
v -0.013396 0.029012 -0.312243
v -0.013396 0.029012 -0.477757
v -0.013396 0.029012 -0.812243
v 0.083512 2.029012 0.727757
v 0.084332 2.029012 0.980967
v 0.084331 0.029012 0.980967
v 0.083512 2.029012 -0.772243
v 0.083512 2.029012 -0.517757
v 0.083512 2.029012 -0.272243
v 0.083512 2.029012 -0.017757
v 0.083512 2.029012 0.227757
v 0.083512 2.029012 0.482243
v 0.083512 0.029012 0.727757
v 0.083512 0.029012 0.482243
v 0.083512 0.029012 0.227757
v 0.083512 0.029012 -0.017757
v 0.083512 0.029012 -0.272243
v 0.083512 0.029012 -0.517757
v 0.083512 0.029012 -0.772243
v -0.047030 2.029012 0.964288
v -0.047031 0.029012 0.964288
v -0.086641 2.029012 -1.000000
v -0.086641 0.029012 -1.000000
v -0.079886 2.029012 -0.767757
v -0.079886 2.029012 -0.522243
v -0.079886 2.029012 -0.267757
v -0.079886 2.029012 -0.022243
v -0.079886 2.029012 0.232243
v -0.079886 2.029012 0.477757
v -0.079886 2.029012 0.732243
v -0.079886 0.029012 0.732243
v -0.079886 0.029012 0.477757
v -0.079886 0.029012 0.232243
v -0.079886 0.029012 -0.022243
v -0.079886 0.029012 -0.267757
v -0.079886 0.029012 -0.522243
v -0.079886 0.029012 -0.767757
v 0.017022 2.029012 0.772243
v 0.016203 2.029012 0.939032
v 0.016203 0.029012 0.939032
v 0.017022 2.029012 -0.727757
v 0.017022 2.029012 -0.562243
v 0.017022 2.029012 -0.227757
v 0.017022 2.029012 -0.062243
v 0.017022 2.029012 0.272243
v 0.017022 2.029012 0.437757
v 0.017022 0.029012 0.772243
v 0.017022 0.029012 0.437757
v 0.017022 0.029012 0.272243
v 0.017022 0.029012 -0.062243
v 0.017022 0.029012 -0.227757
v 0.017022 0.029012 -0.562243
v 0.017022 0.029012 -0.727757
vn 0.4284 0.8605 -0.2756
vn 0.4284 -0.8605 -0.2756
vn 0.5886 -0.5755 -0.5678
vn 0.5886 0.5755 -0.5678
vn 0.4298 0.8559 0.2876
vn 0.4298 -0.8559 0.2876
vn 0.6644 -0.6008 0.4445
vn 0.6644 0.6008 0.4445
vn 0.4298 0.8559 -0.2876
vn 0.4298 -0.8559 -0.2876
vn 0.6644 0.6008 -0.4445
vn 0.6644 -0.6008 -0.4445
vn 0.6867 0.6096 0.3960
vn 0.6867 -0.6096 0.3960
vn 0.6636 -0.6010 -0.4455
vn 0.6636 0.6010 -0.4455
vn -0.2349 0.5746 0.7840
vn -0.2349 -0.5746 0.7840
vn -0.6567 0.6027 0.4533
vn -0.5864 0.5758 -0.5696
vn -0.5864 -0.5758 -0.5696
vn -0.6567 -0.6027 0.4533
vn -0.6644 0.6008 -0.4445
vn -0.4298 0.8559 -0.2876
vn -0.4298 -0.8559 -0.2876
vn -0.6644 -0.6008 -0.4445
vn -0.6644 0.6008 0.4445
vn -0.6644 -0.6008 0.4445
vn -0.4298 -0.8559 0.2876
vn -0.4298 0.8559 0.2876
vn -0.4263 0.8567 -0.2903
vn -0.4297 0.8565 0.2860
vn -0.4297 -0.8565 0.2860
vn -0.4263 -0.8567 -0.2903
vn -0.7666 0.5729 -0.2901
vn -0.7666 -0.5729 -0.2901
vt 0.024336 0.274336
vt 0.024336 0.274336
vt 0.024336 0.475664
vt 0.225664 0.475664
vt 0.024336 0.450498
vt 0.024336 0.425332
vt 0.024336 0.400166
vt 0.024336 0.375000
vt 0.024336 0.349834
vt 0.024336 0.324668
vt 0.024336 0.299502
vt 0.225664 0.299502
vt 0.225664 0.324668
vt 0.225664 0.349834
vt 0.225664 0.375000
vt 0.225664 0.400166
vt 0.225664 0.425332
vt 0.225664 0.450498
vt 0.024336 0.299502
vt 0.024336 0.274336
vt 0.225664 0.274336
vt 0.024336 0.274336
vt 0.024336 0.450498
vt 0.024336 0.425332
vt 0.024336 0.400166
vt 0.024336 0.375000
vt 0.024336 0.349834
vt 0.024336 0.324668
vt 0.225664 0.299502
vt 0.225664 0.324668
vt 0.225664 0.349834
vt 0.225664 0.375000
vt 0.225664 0.400166
vt 0.225664 0.425332
vt 0.225664 0.450498
vt 0.024336 0.274336
vt 0.024336 0.274336
vt 0.024336 0.475664
vt 0.225664 0.475664
vt 0.024336 0.450498
vt 0.024336 0.425332
vt 0.024336 0.400166
vt 0.024336 0.375000
vt 0.024336 0.349834
vt 0.024336 0.324668
vt 0.024336 0.299502
vt 0.225664 0.299502
vt 0.225664 0.324668
vt 0.225664 0.349834
vt 0.225664 0.375000
vt 0.225664 0.400166
vt 0.225664 0.425332
vt 0.225664 0.450498
vt 0.024336 0.299502
vt 0.024336 0.274336
vt 0.225664 0.274336
vt 0.024336 0.274336
vt 0.024336 0.450498
vt 0.024336 0.425332
vt 0.024336 0.400166
vt 0.024336 0.375000
vt 0.024336 0.349834
vt 0.024336 0.324668
vt 0.225664 0.299502
vt 0.225664 0.324668
vt 0.225664 0.349834
vt 0.225664 0.375000
vt 0.225664 0.400166
vt 0.225664 0.425332
vt 0.225664 0.450498
s 1
usemtl Material.001
f 5/5/1 18/18/2 4/4/3 3/3/4
f 6/6/5 17/17/6 33/34/7 23/24/8
f 11/11/9 12/12/10 13/13/6 10/10/5
f 9/9/9 14/14/10 15/15/6 8/8/5
f 7/7/9 16/16/10 17/17/6 6/6/5
f 16/16/10 7/7/9 24/25/11 32/33/12
f 20/20/13 21/21/14 28/29/15 19/19/16
f 27/28/8 29/30/7 30/31/12 26/27/11
f 25/26/8 31/32/7 32/33/12 24/25/11
f 23/24/8 33/34/7 34/35/12 22/23/11
f 1/1/17 2/2/18 21/22/14 20/20/13
f 18/18/2 5/5/1 22/23/11 34/35/12
f 12/12/10 11/11/9 19/19/16 28/29/15
f 10/10/5 13/13/6 29/30/7 27/28/8
f 14/14/10 9/9/9 26/27/11 30/31/12
f 8/8/5 15/15/6 31/32/7 25/26/8
f 39/40/19 37/38/20 38/39/21 52/53/22
f 40/41/23 57/59/24 67/69/25 51/52/26
f 45/46/27 44/45/23 47/48/26 46/47/28
f 43/44/27 42/43/23 49/50/26 48/49/28
f 41/42/27 40/41/23 51/52/26 50/51/28
f 50/51/28 66/68/29 58/60/30 41/42/27
f 54/55/31 53/54/32 62/64/33 55/56/34
f 61/63/24 60/62/30 64/66/29 63/65/25
f 59/61/24 58/60/30 66/68/29 65/67/25
f 57/59/24 56/58/30 68/70/29 67/69/25
f 35/36/35 54/55/31 55/57/34 36/37/36
f 52/53/22 68/70/29 56/58/30 39/40/19
f 46/47/28 62/64/33 53/54/32 45/46/27
f 44/45/23 61/63/24 63/65/25 47/48/26
f 48/49/28 64/66/29 60/62/30 43/44/27
f 42/43/23 59/61/24 65/67/25 49/50/26
f 2/2/18 1/1/17 35/36/35 36/37/36
f 4/4/3 18/18/2 52/53/22 38/39/21
f 3/3/4 4/4/3 38/39/21 37/38/20
f 5/5/1 3/3/4 37/38/20 39/40/19
f 7/7/9 6/6/5 40/41/23 41/42/27
f 9/9/9 8/8/5 42/43/23 43/44/27
f 11/11/9 10/10/5 44/45/23 45/46/27
f 13/13/6 12/12/10 46/47/28 47/48/26
f 15/15/6 14/14/10 48/49/28 49/50/26
f 17/17/6 16/16/10 50/51/28 51/52/26
f 20/20/13 19/19/16 53/54/32 54/55/31
f 23/24/8 22/23/11 56/58/30 57/59/24
f 25/26/8 24/25/11 58/60/30 59/61/24
f 27/28/8 26/27/11 60/62/30 61/63/24
f 28/29/15 21/21/14 55/56/34 62/64/33
f 30/31/12 29/30/7 63/65/25 64/66/29
f 32/33/12 31/32/7 65/67/25 66/68/29
f 34/35/12 33/34/7 67/69/25 68/70/29
f 24/25/11 7/7/9 41/42/27 58/60/30
f 16/16/10 32/33/12 66/68/29 50/51/28
f 1/1/17 20/20/13 54/55/31 35/36/35
f 19/19/16 11/11/9 45/46/27 53/54/32
f 31/32/7 15/15/6 49/50/26 65/67/25
f 33/34/7 17/17/6 51/52/26 67/69/25
f 6/6/5 23/24/8 57/59/24 40/41/23
f 21/22/14 2/2/18 36/37/36 55/57/34
f 10/10/5 27/28/8 61/63/24 44/45/23
f 26/27/11 9/9/9 43/44/27 60/62/30
f 22/23/11 5/5/1 39/40/19 56/58/30
f 18/18/2 34/35/12 68/70/29 52/53/22
f 12/12/10 28/29/15 62/64/33 46/47/28
f 29/30/7 13/13/6 47/48/26 63/65/25
f 14/14/10 30/31/12 64/66/29 48/49/28
f 8/8/5 25/26/8 59/61/24 42/43/23
